<svg width="160" height="160" viewBox="0 0 160 160" fill="none" xmlns="http://www.w3.org/2000/svg">
<path d="M80 160C124.183 160 160 124.183 160 80C160 35.8172 124.183 0 80 0C35.8172 0 0 35.8172 0 80C0 124.183 35.8172 160 80 160Z" fill="#444444"/>
<path d="M112 116V108C112 99.1635 104.836 92 96 92H64C55.1635 92 48 99.1635 48 108V116" stroke="#666666" stroke-width="2" stroke-linecap="round" stroke-linejoin="round"/>
<path fill-rule="evenodd" clip-rule="evenodd" d="M80 76C88.8366 76 96 68.8365 96 60C96 51.1635 88.8366 44 80 44C71.1635 44 64 51.1635 64 60C64 68.8365 71.1635 76 80 76Z" stroke="#666666" stroke-width="2" stroke-linecap="round" stroke-linejoin="round"/>
</svg>
